<svg width="64" height="64" viewBox="0 0 64 64" fill="none" xmlns="http://www.w3.org/2000/svg">
<circle cx="32" cy="32" r="32" fill="#64B5F6" fill-opacity="0.54"/>
<g clip-path="url(#clip0)">
<path d="M53.8884 45.8125C52.9785 46.8813 51.6303 47.4995 50.2084 47.5H13.7917C12.3699 47.4995 11.0217 46.8813 10.1117 45.8125L27.6876 31.4875L29.5084 32.7063C31.0084 33.7188 32.9918 33.7188 34.4918 32.7063L36.3126 31.4875L53.8884 45.8125Z" fill="#1E88E5"/>
<path d="M54.1566 19.5439L36.3125 31.4876L34.4917 32.7063C32.9917 33.7188 31.0083 33.7188 29.5083 32.7063L27.6875 31.4876L9.84344 19.5251C10.7413 18.2585 12.2161 17.5021 13.7918 17.5001H50.2084C51.7911 17.4919 53.2732 18.259 54.1566 19.5439Z" fill="#64B5F6"/>
<path d="M27.6876 31.4875L10.1117 45.8125C9.39234 44.9714 8.99874 43.9093 9.00009 42.8126V22.1876C8.99425 21.2363 9.28884 20.3065 9.84345 19.5251L27.6876 31.4875Z" fill="#2196F3"/>
<path d="M55 22.1876V42.8126C55.0012 43.9093 54.6077 44.9714 53.8883 45.8125L36.3125 31.4875L54.1566 19.5438C54.7084 20.3195 55.0029 21.2425 55 22.1876Z" fill="#2196F3"/>
</g>
<defs>
<clipPath id="clip0">
<rect width="46" height="45" fill="white" transform="translate(9 10)"/>
</clipPath>
</defs>
</svg>
