<svg width="325" height="64" viewBox="0 0 325 64" fill="none" xmlns="http://www.w3.org/2000/svg">
<rect x="2" y="2" width="321" height="60" stroke="white" stroke-width="4"/>
<rect x="190" y="2" width="133" height="60" fill="white" stroke="white" stroke-width="4"/>
<path d="M27.2578 42.0234L37.0078 13.875H41.9297L29.2734 48H25.2891L12.6562 13.875H17.5547L27.2578 42.0234ZM50.5547 48H46.2188V22.6406H50.5547V48ZM45.8672 15.9141C45.8672 15.2109 46.0781 14.6172 46.5 14.1328C46.9375 13.6484 47.5781 13.4062 48.4219 13.4062C49.2656 13.4062 49.9062 13.6484 50.3438 14.1328C50.7812 14.6172 51 15.2109 51 15.9141C51 16.6172 50.7812 17.2031 50.3438 17.6719C49.9062 18.1406 49.2656 18.375 48.4219 18.375C47.5781 18.375 46.9375 18.1406 46.5 17.6719C46.0781 17.2031 45.8672 16.6172 45.8672 15.9141ZM61.6172 22.6406L61.7578 25.8281C63.6953 23.3906 66.2266 22.1719 69.3516 22.1719C74.7109 22.1719 77.4141 25.1953 77.4609 31.2422V48H73.125V31.2188C73.1094 29.3906 72.6875 28.0391 71.8594 27.1641C71.0469 26.2891 69.7734 25.8516 68.0391 25.8516C66.6328 25.8516 65.3984 26.2266 64.3359 26.9766C63.2734 27.7266 62.4453 28.7109 61.8516 29.9297V48H57.5156V22.6406H61.6172ZM94.1719 44.9297C95.7188 44.9297 97.0703 44.4609 98.2266 43.5234C99.3828 42.5859 100.023 41.4141 100.148 40.0078H104.25C104.172 41.4609 103.672 42.8438 102.75 44.1562C101.828 45.4688 100.594 46.5156 99.0469 47.2969C97.5156 48.0781 95.8906 48.4688 94.1719 48.4688C90.7188 48.4688 87.9688 47.3203 85.9219 45.0234C83.8906 42.7109 82.875 39.5547 82.875 35.5547V34.8281C82.875 32.3594 83.3281 30.1641 84.2344 28.2422C85.1406 26.3203 86.4375 24.8281 88.125 23.7656C89.8281 22.7031 91.8359 22.1719 94.1484 22.1719C96.9922 22.1719 99.3516 23.0234 101.227 24.7266C103.117 26.4297 104.125 28.6406 104.25 31.3594H100.148C100.023 29.7188 99.3984 28.375 98.2734 27.3281C97.1641 26.2656 95.7891 25.7344 94.1484 25.7344C91.9453 25.7344 90.2344 26.5312 89.0156 28.125C87.8125 29.7031 87.2109 31.9922 87.2109 34.9922V35.8125C87.2109 38.7344 87.8125 40.9844 89.0156 42.5625C90.2188 44.1406 91.9375 44.9297 94.1719 44.9297ZM119.648 48.4688C116.211 48.4688 113.414 47.3438 111.258 45.0938C109.102 42.8281 108.023 39.8047 108.023 36.0234V35.2266C108.023 32.7109 108.5 30.4688 109.453 28.5C110.422 26.5156 111.766 24.9688 113.484 23.8594C115.219 22.7344 117.094 22.1719 119.109 22.1719C122.406 22.1719 124.969 23.2578 126.797 25.4297C128.625 27.6016 129.539 30.7109 129.539 34.7578V36.5625H112.359C112.422 39.0625 113.148 41.0859 114.539 42.6328C115.945 44.1641 117.727 44.9297 119.883 44.9297C121.414 44.9297 122.711 44.6172 123.773 43.9922C124.836 43.3672 125.766 42.5391 126.562 41.5078L129.211 43.5703C127.086 46.8359 123.898 48.4688 119.648 48.4688ZM119.109 25.7344C117.359 25.7344 115.891 26.375 114.703 27.6562C113.516 28.9219 112.781 30.7031 112.5 33H125.203V32.6719C125.078 30.4688 124.484 28.7656 123.422 27.5625C122.359 26.3438 120.922 25.7344 119.109 25.7344ZM138.68 22.6406L138.82 25.8281C140.758 23.3906 143.289 22.1719 146.414 22.1719C151.773 22.1719 154.477 25.1953 154.523 31.2422V48H150.188V31.2188C150.172 29.3906 149.75 28.0391 148.922 27.1641C148.109 26.2891 146.836 25.8516 145.102 25.8516C143.695 25.8516 142.461 26.2266 141.398 26.9766C140.336 27.7266 139.508 28.7109 138.914 29.9297V48H134.578V22.6406H138.68ZM166.945 16.5V22.6406H171.68V25.9922H166.945V41.7188C166.945 42.7344 167.156 43.5 167.578 44.0156C168 44.5156 168.719 44.7656 169.734 44.7656C170.234 44.7656 170.922 44.6719 171.797 44.4844V48C170.656 48.3125 169.547 48.4688 168.469 48.4688C166.531 48.4688 165.07 47.8828 164.086 46.7109C163.102 45.5391 162.609 43.875 162.609 41.7188V25.9922H157.992V22.6406H162.609V16.5H166.945Z" fill="white"/>
<path d="M212.047 48V13.875H222.547C225.547 13.875 228.227 14.5547 230.586 15.9141C232.961 17.2578 234.812 19.1797 236.141 21.6797C237.469 24.1641 238.133 26.9922 238.133 30.1641V31.7344C238.133 34.9062 237.477 37.7266 236.164 40.1953C234.867 42.6641 233.031 44.5781 230.656 45.9375C228.281 47.2969 225.602 47.9844 222.617 48H212.047ZM219.078 19.5703V42.3516H222.477C225.227 42.3516 227.328 41.4531 228.781 39.6562C230.234 37.8594 230.977 35.2891 231.008 31.9453V30.1406C231.008 26.6719 230.289 24.0469 228.852 22.2656C227.414 20.4688 225.312 19.5703 222.547 19.5703H219.078ZM257.516 48C257.203 47.3906 256.977 46.6328 256.836 45.7266C255.195 47.5547 253.062 48.4688 250.438 48.4688C247.953 48.4688 245.891 47.75 244.25 46.3125C242.625 44.875 241.812 43.0625 241.812 40.875C241.812 38.1875 242.805 36.125 244.789 34.6875C246.789 33.25 249.672 32.5234 253.438 32.5078H256.555V31.0547C256.555 29.8828 256.25 28.9453 255.641 28.2422C255.047 27.5391 254.102 27.1875 252.805 27.1875C251.664 27.1875 250.766 27.4609 250.109 28.0078C249.469 28.5547 249.148 29.3047 249.148 30.2578H242.375C242.375 28.7891 242.828 27.4297 243.734 26.1797C244.641 24.9297 245.922 23.9531 247.578 23.25C249.234 22.5312 251.094 22.1719 253.156 22.1719C256.281 22.1719 258.758 22.9609 260.586 24.5391C262.43 26.1016 263.352 28.3047 263.352 31.1484V42.1406C263.367 44.5469 263.703 46.3672 264.359 47.6016V48H257.516ZM251.914 43.2891C252.914 43.2891 253.836 43.0703 254.68 42.6328C255.523 42.1797 256.148 41.5781 256.555 40.8281V36.4688H254.023C250.633 36.4688 248.828 37.6406 248.609 39.9844L248.586 40.3828C248.586 41.2266 248.883 41.9219 249.477 42.4688C250.07 43.0156 250.883 43.2891 251.914 43.2891ZM275.703 48H268.906V22.6406H275.703V48ZM268.508 16.0781C268.508 15.0625 268.844 14.2266 269.516 13.5703C270.203 12.9141 271.133 12.5859 272.305 12.5859C273.461 12.5859 274.383 12.9141 275.07 13.5703C275.758 14.2266 276.102 15.0625 276.102 16.0781C276.102 17.1094 275.75 17.9531 275.047 18.6094C274.359 19.2656 273.445 19.5938 272.305 19.5938C271.164 19.5938 270.242 19.2656 269.539 18.6094C268.852 17.9531 268.508 17.1094 268.508 16.0781ZM295.039 40.9922C295.039 40.1641 294.625 39.5156 293.797 39.0469C292.984 38.5625 291.672 38.1328 289.859 37.7578C283.828 36.4922 280.812 33.9297 280.812 30.0703C280.812 27.8203 281.742 25.9453 283.602 24.4453C285.477 22.9297 287.922 22.1719 290.938 22.1719C294.156 22.1719 296.727 22.9297 298.648 24.4453C300.586 25.9609 301.555 27.9297 301.555 30.3516H294.781C294.781 29.3828 294.469 28.5859 293.844 27.9609C293.219 27.3203 292.242 27 290.914 27C289.773 27 288.891 27.2578 288.266 27.7734C287.641 28.2891 287.328 28.9453 287.328 29.7422C287.328 30.4922 287.68 31.1016 288.383 31.5703C289.102 32.0234 290.305 32.4219 291.992 32.7656C293.68 33.0938 295.102 33.4688 296.258 33.8906C299.836 35.2031 301.625 37.4766 301.625 40.7109C301.625 43.0234 300.633 44.8984 298.648 46.3359C296.664 47.7578 294.102 48.4688 290.961 48.4688C288.836 48.4688 286.945 48.0938 285.289 47.3438C283.648 46.5781 282.359 45.5391 281.422 44.2266C280.484 42.8984 280.016 41.4688 280.016 39.9375H286.438C286.5 41.1406 286.945 42.0625 287.773 42.7031C288.602 43.3438 289.711 43.6641 291.102 43.6641C292.398 43.6641 293.375 43.4219 294.031 42.9375C294.703 42.4375 295.039 41.7891 295.039 40.9922Z" fill="#222222"/>
</svg>
